<svg xmlns="http://www.w3.org/2000/svg" viewBox="0 0 156.56 156.56"><defs><style>.cls-1{fill:#000060;}.cls-2{fill:#bbe0e6;}</style></defs><title>cultural-experience-full</title><g id="Layer_2" data-name="Layer 2"><g id="Holiday_types_full_colour"><path class="cls-1" d="M36.48,52.39V64.34H48.42v35.83H36.48V112.1h83.59V100.16H108.13V64.34h11.94V52.39L78.28,40.45Zm35.83,47.77H60.37V64.34H72.31ZM84.25,64.34H96.19v35.83H84.25Z"/><rect class="cls-2" x="84.25" y="64.34" width="11.94" height="35.83"/><rect class="cls-2" x="60.37" y="64.34" width="11.94" height="35.83"/><path class="cls-2" d="M78.28,0a78.28,78.28,0,1,0,78.28,78.28A78.28,78.28,0,0,0,78.28,0Zm41.8,64.34H108.13v35.83h11.94V112.1H36.48V100.16H48.42V64.34H36.48V52.39l41.8-11.94,41.8,11.94Z"/></g></g></svg>