<svg xmlns="http://www.w3.org/2000/svg" viewBox="0 0 156.56 156.56"><defs><style>.cls-1{fill:#000060;}.cls-2{fill:#bbe0e6;}</style></defs><title>food-tour-full</title><g id="Layer_2" data-name="Layer 2"><g id="Holiday_types_full_colour"><path class="cls-1" d="M73.53,34.42v20.5h-3V34.51a1.63,1.63,0,1,0-3.25-.09v20.5h-3V34.47A1.67,1.67,0,1,0,61,34.37V54.92H58.12V34.56a1.74,1.74,0,1,0-3.48-.09V62A6.33,6.33,0,0,0,61,68.56v50c0,7.12,9.69,7.12,9.69,0v-50a6.43,6.43,0,0,0,6.22-6.12h0V34.51A1.7,1.7,0,1,0,73.53,34.42Z"/><path class="cls-1" d="M87.86,40.87V87.72H93v30.85a4.86,4.86,0,1,0,9.69,0V40.87C102.71,30,87.85,30,87.86,40.87Z"/><path class="cls-2" d="M78.28,0a78.28,78.28,0,1,0,78.28,78.28A78.28,78.28,0,0,0,78.28,0ZM102.7,118.57a4.86,4.86,0,1,1-9.69,0V87.72H87.86V40.87c0-10.91,14.86-10.91,14.84,0ZM76.91,62.44h0a6.43,6.43,0,0,1-6.22,6.12v50c0,7.12-9.68,7.12-9.69,0v-50A6.33,6.33,0,0,1,54.65,62V34.47a1.74,1.74,0,1,1,3.48.09V54.92H61V34.37a1.67,1.67,0,1,1,3.34.09V54.92h3V34.42a1.63,1.63,0,1,1,3.25.09V54.92h3V34.42a1.7,1.7,0,1,1,3.39.09Z"/></g></g></svg>