<svg xmlns="http://www.w3.org/2000/svg" viewBox="0 0 156.56 156.56"><defs><style>.cls-1{fill:#000060;}.cls-2{fill:#bbe0e6;}</style></defs><title>self-guided-full</title><g id="Layer_2" data-name="Layer 2"><g id="Holiday_types_full_colour"><path class="cls-1" d="M102.59,65.67,91.9,63,89,51.09a7.86,7.86,0,0,0-7.73-6.47c-6.18-.16-7.73,6.31-7.73,6.31l-16,67.28a7.88,7.88,0,0,0-.1,1.07,5.32,5.32,0,0,0,10.42,1.52L77,82.93l8.69,37.66a5.33,5.33,0,0,0,10.5-1.31,5.51,5.51,0,0,0-.13-1.15l-12-50,1-4.37.76,3.46a3.56,3.56,0,0,0,2.8,2.49L101,72.8a3.3,3.3,0,0,0,.73.05,3.64,3.64,0,0,0,.84-7.18Z"/><path class="cls-1" d="M57.6,66.69l6.31,1.52a2.14,2.14,0,0,0,2.59-1.6l5.29-21.92a2.15,2.15,0,0,0-1.57-2.62l-6.31-1.55a2.2,2.2,0,0,0-2.62,1.62L56,64.1A2.15,2.15,0,0,0,57.6,66.69Z"/><path class="cls-1" d="M83.45,43.12a7.58,7.58,0,1,0-7.57-7.57A7.56,7.56,0,0,0,83.45,43.12Z"/><path class="cls-2" d="M78.28,0a78.28,78.28,0,1,0,78.28,78.28A78.28,78.28,0,0,0,78.28,0Zm23.47,72.85a3.3,3.3,0,0,1-.73-.05L88.68,69.65a3.56,3.56,0,0,1-2.8-2.49l-.76-3.46-1,4.37,12,50a5.51,5.51,0,0,1,.13,1.15,5.33,5.33,0,0,1-10.5,1.31L77,82.93,67.84,120.8a5.32,5.32,0,0,1-10.42-1.52,7.88,7.88,0,0,1,.1-1.07l16-67.28s1.55-6.47,7.73-6.31A7.86,7.86,0,0,1,89,51.09L91.9,63l10.68,2.67a3.64,3.64,0,0,1-.84,7.18ZM83.45,28a7.58,7.58,0,1,1-7.57,7.59A7.58,7.58,0,0,1,83.45,28ZM56,64.1l5.29-21.95a2.2,2.2,0,0,1,2.62-1.62l6.31,1.55a2.15,2.15,0,0,1,1.57,2.62L66.5,66.61a2.14,2.14,0,0,1-2.59,1.6L57.6,66.69A2.15,2.15,0,0,1,56,64.1Z"/></g></g></svg>