<svg xmlns="http://www.w3.org/2000/svg" viewBox="0 0 66.85 71.76"><defs><style>.cls-1{fill:#000060;}</style></defs><title>kids-club</title><g id="Layer_2" data-name="Layer 2"><g id="Inclusions"><path class="cls-1" d="M66.76,38.43,63.3,22.48a5.05,5.05,0,0,0-4.71-3.8H45.17a5,5,0,0,0-4.71,3.8L37,38.43c-.45,2.09.69,3.8,2.53,3.8h3.34l.32,3.88,1.72,21.6c.17,2.13,1.77,3.88,3.56,3.88H55c1.8,0,3.39-1.75,3.56-3.88l1.72-21.6.32-3.88h3.49c1.93,0,3.13-1.71,2.68-3.8"/><path class="cls-1" d="M59.63,7.76a7.75,7.75,0,1,0-7.76,7.75,7.75,7.75,0,0,0,7.76-7.75"/><path class="cls-1" d="M32,52.79,23.19,22.67a5,5,0,0,0-4.61-3.8H13.46a5,5,0,0,0-4.69,3.81L.08,52.79a3,3,0,0,0,3.09,3.8H8.23l.29,3.88.58,7.43c.17,2.13,1.78,3.87,3.57,3.87h6.51c1.79,0,3.4-1.75,3.56-3.87l.6-7.43.3-3.88H29A3,3,0,0,0,32,52.79"/><path class="cls-1" d="M26.74,4.84l-3.27,1a7.71,7.71,0,0,0-14.83,0l-3.27-1a.59.59,0,0,0-.74.59v5a.59.59,0,0,0,.74.6l3.27-.95a7.71,7.71,0,0,0,14.82,0l3.27.95a.59.59,0,0,0,.74-.6v-5a.59.59,0,0,0-.74-.59"/></g></g></svg>