<svg xmlns="http://www.w3.org/2000/svg" viewBox="0 0 101.3 71.65"><defs><style>.cls-1{fill:#000060;}</style></defs><title>wifi</title><g id="Layer_2" data-name="Layer 2"><g id="Inclusions"><path class="cls-1" d="M57.92,64.44a10.27,10.27,0,0,0-14.42,0l7.21,7.21Z"/><path class="cls-1" d="M65.13,57.11l7.21-7.21A30.74,30.74,0,0,0,29,49.9l7.21,7.21A20.68,20.68,0,0,1,65.13,57.11Z"/><path class="cls-1" d="M79.66,42.69l7.21-7.21a51.21,51.21,0,0,0-72.34,0l7.21,7.21A40.94,40.94,0,0,1,79.66,42.69Z"/><path class="cls-1" d="M94.09,28.27l7.21-7.21A71.58,71.58,0,0,0,0,20.94l7.21,7.21A61.51,61.51,0,0,1,94.09,28.27Z"/></g></g></svg>