<?xml version="1.0" encoding="utf-8"?>
<!-- Generator: Adobe Illustrator 15.0.0, SVG Export Plug-In . SVG Version: 6.00 Build 0)  -->
<!DOCTYPE svg PUBLIC "-//W3C//DTD SVG 1.1//EN" "http://www.w3.org/Graphics/SVG/1.1/DTD/svg11.dtd">
<svg version="1.1" id="Layer_1" xmlns="http://www.w3.org/2000/svg" xmlns:xlink="http://www.w3.org/1999/xlink" x="0px" y="0px"
	 width="21.005px" height="21.005px" viewBox="0 0 21.005 21.005" enable-background="new 0 0 21.005 21.005" xml:space="preserve">
<path fill="#000060" d="M8.714,17.428C3.909,17.428,0,13.519,0,8.714C0,3.909,3.909,0,8.714,0s8.714,3.909,8.714,8.714
	C17.428,13.519,13.519,17.428,8.714,17.428z M8.714,1.872c-3.772,0-6.842,3.069-6.842,6.842c0,3.772,3.069,6.841,6.842,6.841
	s6.842-3.069,6.842-6.841C15.556,4.941,12.486,1.872,8.714,1.872z"/>
<path fill="#000060" d="M20.069,21.005c-0.239,0-0.479-0.091-0.661-0.274l-5.349-5.35c-0.366-0.365-0.366-0.957,0-1.322
	c0.365-0.366,0.958-0.366,1.323,0l5.349,5.348c0.365,0.366,0.365,0.959,0,1.324C20.549,20.915,20.309,21.005,20.069,21.005z"/>
</svg>
