<svg xmlns="http://www.w3.org/2000/svg" viewBox="0 0 156.56 156.56"><defs><style>.cls-1{fill:#fff;}</style></defs><title>bus-trip-white</title><g id="Layer_2" data-name="Layer 2"><g id="Holiday_types_white"><path class="cls-1" d="M48.71,67.69v8.23H74.25V58.12H58.74C51.09,58.12,48.71,61.41,48.71,67.69Z"/><path class="cls-1" d="M66.18,52.52H90.37a2.69,2.69,0,1,0,0-5.38H66.18a2.69,2.69,0,0,0,0,5.38Z"/><ellipse class="cls-1" cx="52.28" cy="89.35" rx="4.92" ry="4.92"/><path class="cls-1" d="M107.84,67.69c0-6.29-2.37-9.57-10-9.57H82.31v17.8h25.53Z"/><path class="cls-1" d="M104.44,84.42a4.92,4.92,0,1,0,4.92,4.92A4.92,4.92,0,0,0,104.44,84.42Z"/><path class="cls-1" d="M78.28,0a78.28,78.28,0,1,0,78.28,78.28A78.28,78.28,0,0,0,78.28,0ZM57.66,110.19c0,5.83-10.74,5.83-10.74,0v-5.26H57.66Zm52.09,0c0,5.83-10.73,5.83-10.73,0v-5.26h10.73Zm3.68-8.06H43.13V58.29C43.13,48.38,53,42,65.25,42H91.3c12.22,0,22.13,6.39,22.13,16.29Z"/></g></g></svg>