<svg xmlns="http://www.w3.org/2000/svg" viewBox="0 0 156.56 156.56"><defs><style>.cls-1{fill:#fff;}</style></defs><title>day-trip-white</title><g id="Layer_2" data-name="Layer 2"><g id="Holiday_types_white"><path class="cls-1" d="M78.28,0a78.28,78.28,0,1,0,78.28,78.28A78.28,78.28,0,0,0,78.28,0Zm30.29,44,4,4-8.46,8.46-4-4ZM75.42,32.59h5.71v12H75.42ZM48,44l8.46,8.46-4,4L44,48ZM32.59,74.39h12V80.1h-12ZM48,112.6l-4-4,8.46-8.46,4,4ZM81.13,124H75.42V112h5.71Zm-2.86-18.43a27.26,27.26,0,1,1,27.26-27.26A27.26,27.26,0,0,1,78.28,105.54Zm30.29,7.06-8.46-8.46,4-4,8.46,8.46ZM124,80.1H112V74.39h12Z"/></g></g></svg>