<svg xmlns="http://www.w3.org/2000/svg" viewBox="0 0 156.56 156.56"><defs><style>.cls-1{fill:#fff;}</style></defs><title>food-tour-white</title><g id="Layer_2" data-name="Layer 2"><g id="Holiday_types_white"><path class="cls-1" d="M78.28,0a78.28,78.28,0,1,0,78.28,78.28A78.28,78.28,0,0,0,78.28,0ZM76.91,62.44h0a6.43,6.43,0,0,1-6.22,6.12v50c0,7.12-9.68,7.12-9.69,0v-50A6.33,6.33,0,0,1,54.65,62V34.47a1.74,1.74,0,1,1,3.48.09V54.92H61V34.37a1.67,1.67,0,1,1,3.34.09V54.92h3V34.42a1.63,1.63,0,1,1,3.25.09V54.92h3V34.42a1.7,1.7,0,1,1,3.39.09Zm25.79,56.13a4.86,4.86,0,1,1-9.69,0V87.72H87.86V40.87c0-10.91,14.86-10.91,14.84,0Z"/></g></g></svg>