<svg xmlns="http://www.w3.org/2000/svg" viewBox="0 0 156.56 156.56"><defs><style>.cls-1{fill:#fff;}</style></defs><title>fully-guided-white</title><g id="Layer_2" data-name="Layer 2"><g id="Holiday_types_white"><path class="cls-1" d="M78.28,0a78.28,78.28,0,1,0,78.28,78.28A78.28,78.28,0,0,0,78.28,0Zm2.67,26.14a8.19,8.19,0,1,1-8.19,8.19A8.19,8.19,0,0,1,80.95,26.14Zm22.68,56.8a3.69,3.69,0,1,1-7.36,0V57.19l-3.46,0,0,66.07a4.84,4.84,0,0,1-9.68,0V86.1H78.79v37.18a4.84,4.84,0,0,1-9.68,0V55.82L58.53,69.62a3.76,3.76,0,0,1-4.58,1.12L37.43,63a3.77,3.77,0,0,1,3.19-6.82l13.77,6.44,10.72-14a9.42,9.42,0,0,1,7.09-3.91l18.36,0c8,0,13.07,3.8,13.07,11.81Z"/></g></g></svg>