<svg xmlns="http://www.w3.org/2000/svg" viewBox="0 0 156.56 156.56"><defs><style>.cls-1{fill:#fff;}</style></defs><title>luxury-white</title><g id="Layer_2" data-name="Layer 2"><g id="Holiday_types_white"><path class="cls-1" d="M78.28,0a78.28,78.28,0,1,0,78.28,78.28A78.28,78.28,0,0,0,78.28,0Zm0,40.08A4.94,4.94,0,1,1,73.34,45,4.94,4.94,0,0,1,78.28,40.08ZM28.16,62.58a4.94,4.94,0,1,1,4.94-4.94A4.94,4.94,0,0,1,28.16,62.58ZM113.9,112H42.66v-5.58H113.9Zm.29-13.32H42.37l-9-30.62L59,77.88a1.15,1.15,0,0,0,1.25-.3l18-19.74,18,19.74a1.15,1.15,0,0,0,1.26.3l25.65-9.79ZM128.4,62.58a4.94,4.94,0,1,1,4.94-4.94A4.94,4.94,0,0,1,128.4,62.58Z"/></g></g></svg>