<?xml version="1.0" encoding="utf-8"?>
<!-- Generator: Adobe Illustrator 20.1.0, SVG Export Plug-In . SVG Version: 6.00 Build 0)  -->
<svg version="1.1" id="Layer_1" xmlns="http://www.w3.org/2000/svg" xmlns:xlink="http://www.w3.org/1999/xlink" x="0px" y="0px"
	 viewBox="0 0 90 60.5" style="enable-background:new 0 0 90 60.5;" xml:space="preserve">
<style type="text/css">
	.st0{fill:#FFFFFF;}
</style>
<path class="st0" d="M78,6.6V2.8V1.1C78,0.5,77.5,0,76.9,0H1.1C0.5,0,0,0.5,0,1.1v46.3c0,0.6,0.5,1.1,1.1,1.1h1.1h4.4h1.1v-1
	c0,0,0-0.1,0-0.1V8.8c0-0.5,0.4-0.9,0.8-1H78V6.6z"/>
<path class="st0" d="M88.9,12H13.1c-0.6,0-1.1,0.5-1.1,1.1v46.3c0,0.6,0.5,1.1,1.1,1.1h75.8c0.6,0,1.1-0.5,1.1-1.1V13.1
	C90,12.5,89.5,12,88.9,12z M49.9,48c-6,0-10.8-4.8-10.8-10.8c0-6,4.8-10.8,10.8-10.8s10.8,4.8,10.8,10.8C60.7,43.1,55.9,48,49.9,48z
	"/>
</svg>
