<?xml version="1.0" encoding="utf-8"?>
<!-- Generator: Adobe Illustrator 20.1.0, SVG Export Plug-In . SVG Version: 6.00 Build 0)  -->
<svg version="1.1" id="Layer_1" xmlns="http://www.w3.org/2000/svg" xmlns:xlink="http://www.w3.org/1999/xlink" x="0px" y="0px"
	 viewBox="0 0 92.9 52.7" style="enable-background:new 0 0 92.9 52.7;" xml:space="preserve">
<style type="text/css">
	.st0{fill:#FFFFFF;}
</style>
<g>
	<path class="st0" d="M79.3,25.5c-1.4,0-2.8,0.2-4.1,0.6c0-7.6-6.2-13.8-13.8-13.8c-2.6,0-5,0.7-7.1,2C50.9,5.9,42.8,0,33.2,0
		C21.4,0,11.7,9,10.5,20.4C4.4,22.9,0,28.9,0,36c0,9,7.1,16.3,15.9,16.7c0.1,0,0.1,0,0.2,0H79c0,0,0.1,0,0.1,0c0.1,0,0.1,0,0.2,0
		c7.5,0,13.6-6.1,13.6-13.6C92.9,31.5,86.8,25.5,79.3,25.5z"/>
</g>
</svg>
