<svg xmlns="http://www.w3.org/2000/svg" viewBox="0 0 28.26 28.28"><defs><style>.cls-1{fill:#fff;}</style></defs><title>insta</title><g id="Layer_2" data-name="Layer 2"><g id="Layer_1-2" data-name="Layer 1"><path class="cls-1" d="M14.1,0l6.16,0A7.87,7.87,0,0,1,28,5.92a7.21,7.21,0,0,1,.24,1.79q0,6.36,0,12.73a7.89,7.89,0,0,1-6.69,7.7,8.4,8.4,0,0,1-1.22.09l-12.42,0A7.88,7.88,0,0,1,.13,21.56,8.22,8.22,0,0,1,0,20.37Q0,14.14,0,7.92A7.86,7.86,0,0,1,7.84,0L14.1,0ZM25.43,14.11c0-2,0-4.06,0-6.09a6.11,6.11,0,0,0,0-.7,5.07,5.07,0,0,0-5.06-4.49l-12.4,0A4.9,4.9,0,0,0,6.83,3,5.07,5.07,0,0,0,2.82,8q0,6.13,0,12.26a5.68,5.68,0,0,0,.06.84,5.09,5.09,0,0,0,5,4.29l12.33,0a5.28,5.28,0,0,0,1.14-.12,5.06,5.06,0,0,0,4-5q0-3.07,0-6.14Z"/><path class="cls-1" d="M6.84,14.15a7.3,7.3,0,1,1,7.3,7.28,7.3,7.3,0,0,1-7.3-7.28Zm7.31,4.45a4.47,4.47,0,1,0-4.48-4.47,4.47,4.47,0,0,0,4.48,4.47Zm9-11.81A1.77,1.77,0,1,1,21.38,5,1.76,1.76,0,0,1,23.15,6.79Z"/></g></g></svg>