<svg xmlns="http://www.w3.org/2000/svg" viewBox="0 0 31.3 25.44"><defs><style>.cls-1{fill:#fff;}</style></defs><title>twitter</title><g id="Layer_2" data-name="Layer 2"><g id="Layer_1-2" data-name="Layer 1"><path class="cls-1" d="M30.44.47A12.88,12.88,0,0,1,26.36,2,6.42,6.42,0,0,0,15.42,7.88,18.21,18.21,0,0,1,2.18,1.17a6.42,6.42,0,0,0,2,8.57,6.39,6.39,0,0,1-2.91-.8V9a6.43,6.43,0,0,0,5.15,6.3,6.49,6.49,0,0,1-2.9.11,6.41,6.41,0,0,0,6,4.46,12.86,12.86,0,0,1-8,2.75A12.59,12.59,0,0,1,0,22.55a18.17,18.17,0,0,0,9.85,2.88c11.81,0,18.27-9.78,18.27-18.27,0-.28,0-.56,0-.83A13.08,13.08,0,0,0,31.3,3a12.71,12.71,0,0,1-3.68,1A6.44,6.44,0,0,0,30.44.47Z"/></g></g></svg>