<svg xmlns="http://www.w3.org/2000/svg" viewBox="0 0 37.73 71.65"><defs><style>.cls-1{fill:#000060;}</style></defs><title>food-tour</title><g id="Layer_2" data-name="Layer 2"><g id="Holiday_types"><path class="cls-1" d="M17.48,23.39A5,5,0,0,1,12.6,28.2V67.46C12.6,73,5,73,5,67.46V28.2a5,5,0,0,1-5-5.14V1.43a1.37,1.37,0,1,1,2.73.07v16H5V1.35a1.31,1.31,0,1,1,2.62.07V17.49H9.94V1.39a1.28,1.28,0,1,1,2.55.07v16h2.33V1.39a1.33,1.33,0,1,1,2.66.07V23.39Z"/><path class="cls-1" d="M37.73,6.45v61a3.81,3.81,0,1,1-7.61,0V43.24h-4V6.45c0-8.56,11.66-8.56,11.65,0Z"/></g></g></svg>