<svg xmlns="http://www.w3.org/2000/svg" viewBox="0 0 48.14 71.81"><defs><style>.cls-1{fill:#000060;}</style></defs><title>fully-guided</title><g id="Layer_2" data-name="Layer 2"><g id="Holiday_types"><circle class="cls-1" cx="32.17" cy="5.77" r="5.77"/><path class="cls-1" d="M38.94,13.12,26,13.1a6.63,6.63,0,0,0-5,2.75L13.47,25.7,3.78,21.16A2.65,2.65,0,1,0,1.53,26L13.15,31.4a2.65,2.65,0,0,0,3.23-.79l7.45-9.72V68.4a3.41,3.41,0,0,0,6.82,0V42.22h3V68.4a3.41,3.41,0,0,0,6.82,0l0-46.52H43V40a2.6,2.6,0,1,0,5.19,0V21.44C48.14,15.8,44.58,13.12,38.94,13.12Z"/></g></g></svg>