<svg xmlns="http://www.w3.org/2000/svg" viewBox="0 0 36.74 71.8"><defs><style>.cls-1{fill:#000060;}</style></defs><title>self-guided</title><g id="Layer_2" data-name="Layer 2"><g id="Holiday_types"><path class="cls-1" d="M20.44,11.27a5.63,5.63,0,1,0-5.62-5.62A5.61,5.61,0,0,0,20.44,11.27Z"/><path class="cls-1" d="M11.78,12.43a1.6,1.6,0,0,0-1.17-1.95L5.92,9.34A1.63,1.63,0,0,0,4,10.54L0,26.85a1.6,1.6,0,0,0,1.19,1.93L5.92,29.9a1.59,1.59,0,0,0,1.93-1.19Z"/><path class="cls-1" d="M1.18,67a5.86,5.86,0,0,0-.08.8A4,4,0,0,0,8.84,69l6.81-28.14,6.46,28a4,4,0,0,0,7.8-1,4.1,4.1,0,0,0-.1-.86L20.93,29.81l.76-3.25.56,2.57A2.65,2.65,0,0,0,24.33,31l9.16,2.33a2.45,2.45,0,0,0,.54,0A2.7,2.7,0,0,0,34.66,28l-7.94-2-2.18-8.85a5.84,5.84,0,0,0-5.74-4.81c-4.59-.12-5.74,4.69-5.74,4.69Z"/></g></g></svg>