<?xml version="1.0" encoding="utf-8"?>
<!-- Generator: Adobe Illustrator 20.1.0, SVG Export Plug-In . SVG Version: 6.00 Build 0)  -->
<svg version="1.1" id="Layer_1" xmlns="http://www.w3.org/2000/svg" xmlns:xlink="http://www.w3.org/1999/xlink" x="0px" y="0px"
	 viewBox="0 0 116.8 100.1" style="enable-background:new 0 0 116.8 100.1;" xml:space="preserve">
<style type="text/css">
	.st0{fill:#FFFFFF;}
</style>
<g>
	<path class="st0" d="M4.3,21C1.4,23.9,0,27.3,0,31.3v54.2c0,4,1.4,7.4,4.3,10.3c2.9,2.9,6.3,4.3,10.3,4.3h4.2V16.7h-4.2
		C10.6,16.7,7.2,18.1,4.3,21L4.3,21z M4.3,21"/>
	<path class="st0" d="M83.4,6.3c0-1.7-0.6-3.2-1.8-4.4C80.4,0.6,78.9,0,77.2,0H39.6c-1.7,0-3.2,0.6-4.4,1.8C34,3,33.4,4.5,33.4,6.3
		v10.4H25v83.4h66.7V16.7h-8.3V6.3z M75.1,16.7H41.7V8.3h33.4V16.7z M75.1,16.7"/>
	<path class="st0" d="M112.5,21c-2.9-2.9-6.3-4.3-10.3-4.3H98v83.4h4.2c4,0,7.4-1.4,10.3-4.3c2.9-2.9,4.3-6.3,4.3-10.3V31.3
		C116.8,27.3,115.4,23.9,112.5,21L112.5,21z M112.5,21"/>
</g>
</svg>
