<?xml version="1.0" encoding="utf-8"?>
<!-- Generator: Adobe Illustrator 20.1.0, SVG Export Plug-In . SVG Version: 6.00 Build 0)  -->
<svg version="1.1" id="Layer_1" xmlns="http://www.w3.org/2000/svg" xmlns:xlink="http://www.w3.org/1999/xlink" x="0px" y="0px"
	 viewBox="-49 141 319.2 432" style="enable-background:new -49 141 319.2 432;" xml:space="preserve">
<style type="text/css">
	.st0{fill:#000060;}
	.st1{fill:#FF4B1A;}
</style>
<path class="st0" d="M110.6,141C22.5,141-49,213.2-49,302.3C-49,391.4,110.6,573,110.6,573s159.6-181.6,159.6-270.7
	C270.2,213.2,198.7,141,110.6,141z"/>
<g id="Layer_2">
	<g id="bucket_list">
		<path class="st1" d="M195.3,243.9c-18.8-19-49.5-19.2-68.5-0.4c0,0-0.1,0.1-0.1,0.1l-16.1,16.1l-16.1-16.1
			c-19-19-49.8-18.9-68.7,0.1c-9,9.1-14.1,21.3-14.2,34.1c-0.1,12.9,5.1,25.2,14.3,34.2l84.7,85l84.7-84.7
			c9.1-9,14.3-21.4,14.3-34.2C209.7,265.2,204.5,252.9,195.3,243.9z"/>
	</g>
</g>
</svg>
