<?xml version="1.0" encoding="utf-8"?>
<!-- Generator: Adobe Illustrator 20.1.0, SVG Export Plug-In . SVG Version: 6.00 Build 0)  -->
<svg version="1.1" id="Layer_1" xmlns="http://www.w3.org/2000/svg" xmlns:xlink="http://www.w3.org/1999/xlink" x="0px" y="0px"
	 viewBox="0 0 44.7 42.6" style="enable-background:new 0 0 44.7 42.6;" xml:space="preserve">
<style type="text/css">
	.st0{fill:#FFFFFF;}
</style>
<g>
	<g>
		<path class="st0" d="M44.7,16.2c-0.1-0.3-0.3-0.5-0.6-0.5l-14.5-2.1L23.1,0.4C22.9,0.2,22.7,0,22.3,0c-0.3,0-0.6,0.2-0.7,0.4
			l-6.5,13.1L0.7,15.7c-0.3,0-0.6,0.3-0.6,0.5c-0.1,0.3,0,0.6,0.2,0.8l10.5,10.2L8.2,41.7c-0.1,0.3,0.1,0.6,0.3,0.8
			c0.2,0.2,0.6,0.2,0.8,0.1l12.9-6.8l12.9,6.8c0.1,0.1,0.2,0.1,0.4,0.1c0.2,0,0.3-0.1,0.5-0.2c0.2-0.2,0.4-0.5,0.3-0.8L34,27.2
			L44.5,17C44.7,16.8,44.8,16.5,44.7,16.2L44.7,16.2z M44.7,16.2"/>
	</g>
</g>
</svg>
