<?xml version="1.0" encoding="utf-8"?>
<!-- Generator: Adobe Illustrator 20.1.0, SVG Export Plug-In . SVG Version: 6.00 Build 0)  -->
<svg version="1.1" id="Layer_1" xmlns="http://www.w3.org/2000/svg" xmlns:xlink="http://www.w3.org/1999/xlink" x="0px" y="0px"
	 viewBox="-47.3 142.1 315.9 315.8" style="enable-background:new -47.3 142.1 315.9 315.8;" xml:space="preserve">
<style type="text/css">
	.st0{fill:#FFFFFF;}
</style>
<path class="st0" d="M110.6,142.1c-87.2,0-158,70.7-158,158s70.7,157.9,158,157.9s158-70.6,158-157.9S197.9,142.1,110.6,142.1z
	 M102.5,180.9h16.2v30.3h-16.2V180.9z M-4.4,291.7v-16.1h30.2v16.1H-4.4z M25.8,364.4L14.4,353l21.4-21.4l11.4,11.4L25.8,364.4z
	 M42.3,236.6l-21.4-21.4l11.4-11.4l21.4,21.4L42.3,236.6z M89.1,410.9H63.3v-42.6h25.8V410.9z M128,410.9h-25.7v-42.6H128V410.9z
	 M118.4,322.8c-6.9,0-12.7-5.5-13.1-12.4l-46.4-57.8l59.6,43.8c7.2,0,13.1,5.8,13.1,13.1C131.6,316.9,125.7,322.8,118.4,322.8z
	 M166.3,410.9h-25.7v-42.6h25.7V410.9z M194.3,209.9l11.4,11.4l-21.4,21.4l-11.4-11.4L194.3,209.9z M199.9,367.6l-21.4-21.4
	l11.4-11.5l21.4,21.4L199.9,367.6z M200,291.7v-16.1h30.3v16.1H200z"/>
</svg>
