<?xml version="1.0" encoding="utf-8"?>
<!-- Generator: Adobe Illustrator 20.1.0, SVG Export Plug-In . SVG Version: 6.00 Build 0)  -->
<svg version="1.1" id="Layer_1" xmlns="http://www.w3.org/2000/svg" xmlns:xlink="http://www.w3.org/1999/xlink" x="0px" y="0px"
	 viewBox="0 0 60 60" style="enable-background:new 0 0 60 60;" xml:space="preserve">
<style type="text/css">
	.st0{fill:#FFFFFF;}
</style>
<path class="st0" d="M59.2,55.4l-15-15c3.4-4.3,5.5-9.7,5.5-15.6C49.8,11.2,38.6,0,24.9,0C11.2,0,0,11.2,0,24.9
	c0,13.7,11.2,24.9,24.9,24.9c5.9,0,11.3-2.1,15.6-5.5l15,15c0.5,0.5,1.2,0.8,1.9,0.8c0.7,0,1.4-0.3,1.9-0.8
	C60.3,58.2,60.3,56.5,59.2,55.4z M24.9,44.4c-10.8,0-19.5-8.8-19.5-19.5c0-10.8,8.8-19.5,19.5-19.5c10.8,0,19.5,8.8,19.5,19.5
	C44.4,35.7,35.7,44.4,24.9,44.4z"/>
<g>
	<path class="st0" d="M25.9,13.1v2.4c2.5,0.4,3.9,2.1,4.1,4.9h-3.3c0-1.3-0.9-2.1-2-2.1s-1.9,0.6-1.9,1.8c0,0.6,0.2,1,0.6,1.3
		s1.2,0.6,2.3,1.1c3.5,1.2,4.8,2.6,4.8,5.2c0,2.8-1.8,4.6-4.6,5v2.4h-2.3v-2.4c-3-0.5-4.6-2.4-4.7-5.4h3.3c0.1,1.7,1,2.5,2.6,2.5
		c1.4,0,2.2-0.8,2.2-1.9c0-1.1-0.8-1.8-3-2.5c-3.3-1.1-4.8-2.4-4.8-5.1c0-2.6,1.6-4.5,4.3-4.9v-2.4H25.9z"/>
</g>
</svg>
