<?xml version="1.0" encoding="utf-8"?>
<!-- Generator: Adobe Illustrator 20.1.0, SVG Export Plug-In . SVG Version: 6.00 Build 0)  -->
<svg version="1.1" id="Layer_1" xmlns="http://www.w3.org/2000/svg" xmlns:xlink="http://www.w3.org/1999/xlink" x="0px" y="0px"
	 viewBox="0 0 340 340" style="enable-background:new 0 0 340 340;" xml:space="preserve">
<style type="text/css">
	.st0{fill:#FFFFFF;}
</style>
<path class="st0" d="M338.2,151l-33.6-5.7c-4.2-0.6-7.6-3.8-8.6-7.9c-3-11.8-7.7-23-13.9-33.5c-2.2-3.7-2-8.3,0.5-11.8l19.8-27.8
	c0.6-0.9,0.5-2-0.2-2.7l-23.8-23.8c-0.6-0.6-1.2-0.6-1.5-0.6c-0.4,0-0.8,0.2-1.2,0.4l-27.6,19.8c-3.5,2.5-8.1,2.6-11.8,0.5
	c-10.7-6.3-22.2-11-34.3-14.1c-4.2-1-7.3-4.5-8-8.7l-5.6-33.4c-0.2-1-1-1.8-2.1-1.8h-33.7c-1,0-1.9,0.7-2.1,1.8l-5.8,33.8
	c-0.7,4.2-3.8,7.5-7.9,8.6c-11.8,3-23,7.8-33.4,14.1c-3.7,2.2-8.3,2-11.8-0.5L63.8,38.2c-0.3-0.2-0.7-0.4-1.2-0.4
	c-0.4,0-1,0.1-1.5,0.6L37.3,62.2C36.6,63,36.5,64.2,37,65L57,93c2.5,3.4,2.7,8,0.6,11.7c-6.2,10.5-10.7,21.8-13.7,33.6
	c-1,4.2-4.5,7.3-8.7,8l-33.4,5.6c-1,0.2-1.8,1-1.8,2.1v33.7c0,1,0.7,1.9,1.8,2.1l33.8,5.8c4.2,0.7,7.5,3.8,8.6,7.9
	c3,11.8,7.8,23,14.1,33.4c2.2,3.7,2,8.3-0.5,11.8l-19.7,27.6c-0.6,0.9-0.5,2,0.2,2.7l23.8,23.8c0.6,0.6,1.2,0.6,1.5,0.6
	c0.4,0,0.8-0.2,1.2-0.4l28-19.9c1.8-1.4,4.1-2,6.2-2c1.8,0,3.8,0.5,5.4,1.4C115,288.5,126,293,137.4,296c4.1,1,7.2,4.4,7.9,8.6
	l5.6,33.6c0.2,1,1,1.8,2.1,1.8h33.7c1,0,1.9-0.7,2.1-1.8l5.7-33.6c0.6-4.2,3.8-7.6,7.9-8.6c11.8-3,23-7.7,33.5-13.9
	c3.7-2.2,8.3-2,11.8,0.5l27.8,19.8c0.3,0.2,0.7,0.4,1.2,0.4c0.4,0,1-0.1,1.5-0.6l23.8-23.8c0.7-0.7,0.8-1.9,0.2-2.7l-19.8-27.8
	c-2.5-3.5-2.6-8.1-0.5-11.8c6.2-10.5,10.9-21.8,13.9-33.5c1-4.1,4.4-7.2,8.6-7.9l33.6-5.6c1-0.2,1.8-1,1.8-2.1h0.1v-33.7
	C340,152.1,339.3,151.2,338.2,151z M169.9,231c-33.7,0-61-27.4-61-61c0-33.7,27.4-61,61-61c33.7,0,61,27.4,61,61
	C231,203.6,203.6,231,169.9,231z"/>
</svg>
