<?xml version="1.0" encoding="utf-8"?>
<!-- Generator: Adobe Illustrator 20.1.0, SVG Export Plug-In . SVG Version: 6.00 Build 0)  -->
<svg version="1.1" id="Layer_1" xmlns="http://www.w3.org/2000/svg" xmlns:xlink="http://www.w3.org/1999/xlink" x="0px" y="0px"
	 viewBox="0 0 100 100" style="enable-background:new 0 0 100 100;" xml:space="preserve">
<style type="text/css">
	.st0{fill:#F3F0EE;}
	.st1{fill:none;}
	.st2{fill:#FBFBFA;}
</style>
<path class="st0" d="M37.8,69.6c0.4-1.8,0.2-3.3-1.1-4.6c-1.9-1.9-2.6-4.3-2.5-7c0-1.2-0.3-2-1.4-2.5c-1.2-0.6-1.7-1.7-2.2-2.9
	c-1-2.4-0.8-5-0.9-7.5c0-1.5,0-2.9,1.8-3.4c-0.1-4.7-0.4-9.2-0.2-13.8c0.2-3.4,1.5-6.1,4.3-8.1c3.7-2.8,7.8-4.7,11.9-6.7
	c1.9-0.9,3.7-2,5.8-2.6c0.3,1-0.1,2,0.4,2.8c1.4,0.6,3.2,0.3,4.5,1.5c3.8,3.2,7.3,6.7,10.6,10.4c0.7,0.8,0.9,1.6,1,2.7
	c0.2,4.3-0.2,8.6-0.4,13.1c1.4,0.2,1.2,1.3,1.1,2.3c-0.1,2.4-0.3,4.8-0.5,7.2c-0.1,1.7-0.7,3.3-2.1,4.5c-0.9,0.7-1.2,1.6-1.2,2.7
	c0,1.8,0.1,3.7-0.7,5.2c-0.9,1.7-1,3.3-0.8,5.2c0.5,0.2,1.1,0.5,1.7,0.7c4.4,1.7,8.7,3.5,13.1,5.1c3.7,1.4,7.2,3.2,10.3,5.6
	c6-8.3,9.6-18.4,9.6-29.4c0-27.6-22.4-50-50-50C22.4,0,0,22.4,0,50c0,13.4,5.3,25.6,13.9,34.6c6.2-4.9,12.2-9.3,15.1-10.7
	C31.9,72.5,34.9,71,37.8,69.6z"/>
<path class="st1" d="M50,100c0.4,0,0.8,0,1.2,0c-0.8,0-1.6,0-2.4,0C49.2,100,49.6,100,50,100z"/>
<path class="st2" d="M90.4,79.4c-3.1-2.4-6.6-4.2-10.3-5.6c-4.4-1.6-8.7-3.4-13.1-5.1c-0.6-0.2-1.2-0.5-1.7-0.7
	c-0.2-1.9-0.1-3.5,0.8-5.2c0.8-1.5,0.7-3.4,0.7-5.2c0-1.1,0.3-2,1.2-2.7c1.4-1.1,2-2.7,2.1-4.5c0.2-2.4,0.4-4.8,0.5-7.2
	c0.1-1,0.2-2.1-1.1-2.3c0.2-4.5,0.5-8.8,0.4-13.1c0-1-0.3-1.9-1-2.7c-3.3-3.7-6.8-7.2-10.6-10.4c-1.3-1.1-3.1-0.9-4.5-1.5
	c-0.5-0.9-0.1-1.9-0.4-2.8c-2.1,0.6-3.9,1.7-5.8,2.6c-4.1,2-8.2,3.9-11.9,6.7c-2.8,2.1-4.1,4.7-4.3,8.1c-0.3,4.6,0,9.1,0.2,13.8
	c-1.8,0.5-1.8,1.9-1.8,3.4c0,2.5-0.1,5.1,0.9,7.5c0.5,1.2,1,2.3,2.2,2.9c1.1,0.5,1.4,1.4,1.4,2.5c0,2.6,0.6,5.1,2.5,7
	c1.3,1.3,1.5,2.8,1.1,4.6c-2.9,1.4-5.8,2.9-8.8,4.3c-2.8,1.3-8.8,5.8-15.1,10.7c8.9,9.2,21.2,15.1,35,15.4c0.8,0,1.6,0,2.4,0
	C67.3,99.6,81.5,91.6,90.4,79.4z"/>
</svg>
