<?xml version="1.0" encoding="utf-8"?>
<!-- Generator: Adobe Illustrator 15.0.0, SVG Export Plug-In . SVG Version: 6.00 Build 0)  -->
<!DOCTYPE svg PUBLIC "-//W3C//DTD SVG 1.1//EN" "http://www.w3.org/Graphics/SVG/1.1/DTD/svg11.dtd">
<svg version="1.1" id="Layer_1" xmlns="http://www.w3.org/2000/svg" xmlns:xlink="http://www.w3.org/1999/xlink" x="0px" y="0px"
	 width="800px" height="621.5px" viewBox="0 -21.5 800 621.5" enable-background="new 0 -21.5 800 621.5" xml:space="preserve">
<g>
	<path fill="#000060" d="M682.885,292.68c-12.056,0-24.112,1.722-35.307,5.167c0-65.447-53.391-118.837-118.838-118.837
		c-22.39,0-43.057,6.028-61.141,17.223C438.32,123.896,368.568,73.089,285.899,73.089c-101.615,0-185.146,77.502-195.479,175.673
		C37.89,270.291,0,321.959,0,383.101c0,77.502,61.141,140.365,136.921,143.811c0.861,0,0.861,0,1.722,0h541.658h0.86
		c0.861,0,0.861,0,1.723,0c64.586,0,117.115-52.53,117.115-117.115C800,344.349,747.471,292.68,682.885,292.68z"/>
</g>
</svg>
