<?xml version="1.0" encoding="utf-8"?>
<!-- Generator: Adobe Illustrator 20.1.0, SVG Export Plug-In . SVG Version: 6.00 Build 0)  -->
<svg version="1.1" id="Layer_1" xmlns="http://www.w3.org/2000/svg" xmlns:xlink="http://www.w3.org/1999/xlink" x="0px" y="0px"
	 viewBox="0 0 21 21" style="enable-background:new 0 0 21 21;" xml:space="preserve">
<style type="text/css">
	.st0{fill:#201D5A;}
</style>
<path class="st0" d="M20.7,19.4l-5.2-5.2c1.2-1.5,1.9-3.4,1.9-5.5c0-4.8-3.9-8.7-8.7-8.7C3.9,0,0,3.9,0,8.7c0,4.8,3.9,8.7,8.7,8.7
	c2.1,0,4-0.7,5.5-1.9l5.2,5.2c0.2,0.2,0.4,0.3,0.7,0.3s0.5-0.1,0.7-0.3C21.1,20.4,21.1,19.8,20.7,19.4z M8.7,15.6
	c-3.8,0-6.8-3.1-6.8-6.8c0-3.8,3.1-6.8,6.8-6.8c3.8,0,6.8,3.1,6.8,6.8C15.6,12.5,12.5,15.6,8.7,15.6z"/>
</svg>
