<svg xmlns="http://www.w3.org/2000/svg" viewBox="0 0 156.56 156.56"><defs><style>.cls-1{fill:#000060;}.cls-2{fill:#bbe0e6;}</style></defs><title>active-full</title><g id="Layer_2" data-name="Layer 2"><g id="Holiday_types_full_colour"><path class="cls-1" d="M118.5,106.3,78.28,34.25,55.22,75.55l0,0v0L38.05,106.3ZM78.28,44.57,88,61.92l-4.43,6.89L76,59.2,65.48,67.49Z"/><polygon class="cls-2" points="83.53 68.81 87.97 61.92 78.28 44.57 65.48 67.49 76.03 59.2 83.53 68.81"/><path class="cls-2" d="M78.28,0a78.28,78.28,0,1,0,78.28,78.28A78.28,78.28,0,0,0,78.28,0ZM55.18,75.58l0,0,23.06-41.3L118.5,106.3H38.05L55.19,75.6Z"/></g></g></svg>