<svg xmlns="http://www.w3.org/2000/svg" viewBox="0 0 156.56 156.56"><defs><style>.cls-1{fill:#000060;}.cls-2{fill:#bbe0e6;}</style></defs><title>bus-tour-full</title><g id="Layer_2" data-name="Layer 2"><g id="Holiday_types_full_colour"><path class="cls-1" d="M91.3,42H65.25C53,42,43.13,48.38,43.13,58.29v43.84h70.3V58.29C113.43,48.38,103.52,42,91.3,42ZM66.18,47.14H90.37a2.69,2.69,0,1,1,0,5.38H66.18a2.69,2.69,0,0,1,0-5.38ZM52.28,94.27a4.92,4.92,0,1,1,4.92-4.92A4.92,4.92,0,0,1,52.28,94.27Zm22-18.35H48.71V67.69c0-6.29,2.38-9.57,10-9.57H74.25Zm8.06-17.8h15.5c7.66,0,10,3.29,10,9.57v8.23H82.31Zm22.13,36.15a4.92,4.92,0,1,1,4.92-4.92A4.92,4.92,0,0,1,104.44,94.27Z"/><path class="cls-1" d="M46.92,110.19c0,5.83,10.74,5.83,10.74,0v-5.26H46.92Z"/><path class="cls-1" d="M109.75,110.19v-5.26H99v5.26C99,116,109.75,116,109.75,110.19Z"/><path class="cls-2" d="M48.71,67.69v8.23H74.25V58.12H58.74C51.09,58.12,48.71,61.41,48.71,67.69Z"/><path class="cls-2" d="M66.18,52.52H90.37a2.69,2.69,0,1,0,0-5.38H66.18a2.69,2.69,0,0,0,0,5.38Z"/><ellipse class="cls-2" cx="52.28" cy="89.35" rx="4.92" ry="4.92"/><path class="cls-2" d="M107.84,67.69c0-6.29-2.37-9.57-10-9.57H82.31v17.8h25.53Z"/><path class="cls-2" d="M104.44,84.42a4.92,4.92,0,1,0,4.92,4.92A4.92,4.92,0,0,0,104.44,84.42Z"/><path class="cls-2" d="M78.28,0a78.28,78.28,0,1,0,78.28,78.28A78.28,78.28,0,0,0,78.28,0ZM99,110.19v-5.26h10.73v5.26C109.75,116,99,116,99,110.19Zm14.41-8.06H43.13V58.29C43.13,48.38,53,42,65.25,42H91.3c12.22,0,22.13,6.39,22.13,16.29Zm-55.77,8.06c0,5.83-10.74,5.83-10.74,0v-5.26H57.66Z"/></g></g></svg>