<svg xmlns="http://www.w3.org/2000/svg" viewBox="0 0 156.56 156.56"><defs><style>.cls-1{fill:#000060;}.cls-2{fill:#bbe0e6;}</style></defs><title>cruise-full</title><g id="Layer_2" data-name="Layer 2"><g id="Holiday_types_full_colour"><path class="cls-1" d="M40.51,76.09l3.31,32.77a3.77,3.77,0,0,0,3.68,3.31h53.58a3.62,3.62,0,0,0,3.13-1.66l23-34.43ZM62.6,93.77H62a3.68,3.68,0,0,1,0-7.36h.55a3.68,3.68,0,0,1,0,7.36Zm16.57,0h-.55a3.68,3.68,0,0,1,0-7.36h.55a3.68,3.68,0,0,1,0,7.36Zm16.57,0h-.55a3.68,3.68,0,0,1,0-7.36h.55a3.68,3.68,0,0,1,0,7.36Z"/><path class="cls-1" d="M52.84,43.32,47.32,68.73h60.21L89.85,42a3.62,3.62,0,0,0-3.13-1.66H56.53A3.92,3.92,0,0,0,52.84,43.32Z"/><path class="cls-2" d="M95.74,86.41h-.55a3.68,3.68,0,0,0,0,7.36h.55a3.68,3.68,0,0,0,0-7.36Z"/><path class="cls-2" d="M79.17,86.41h-.55a3.68,3.68,0,0,0,0,7.36h.55a3.68,3.68,0,0,0,0-7.36Z"/><path class="cls-2" d="M78.28,0a78.28,78.28,0,1,0,78.28,78.28A78.28,78.28,0,0,0,78.28,0Zm22.8,112.18H47.5a3.77,3.77,0,0,1-3.68-3.31L40.51,76.09h86.72l-23,34.43A3.62,3.62,0,0,1,101.08,112.18ZM89.85,42l17.68,26.7H47.32l5.52-25.41a3.92,3.92,0,0,1,3.68-2.95h30.2A3.62,3.62,0,0,1,89.85,42Z"/><path class="cls-2" d="M62.6,86.41H62a3.68,3.68,0,0,0,0,7.36h.55a3.68,3.68,0,0,0,0-7.36Z"/></g></g></svg>