<svg xmlns="http://www.w3.org/2000/svg" viewBox="0 0 156.56 156.56"><defs><style>.cls-1{fill:#000060;}.cls-2{fill:#bbe0e6;}</style></defs><title>day-tour-full</title><g id="Layer_2" data-name="Layer 2"><g id="Holiday_types_full_colour"><rect class="cls-1" x="103.5" y="100.38" width="5.71" height="11.96" transform="translate(-44.05 106.36) rotate(-45)"/><rect class="cls-1" x="100.38" y="47.35" width="11.96" height="5.71" transform="translate(-4.35 89.91) rotate(-45)"/><circle class="cls-1" cx="78.28" cy="78.28" r="27.26"/><rect class="cls-1" x="44.22" y="103.5" width="11.96" height="5.71" transform="translate(-60.5 66.65) rotate(-45)"/><rect class="cls-1" x="32.59" y="74.39" width="11.96" height="5.71"/><rect class="cls-1" x="47.34" y="44.22" width="5.71" height="11.96" transform="translate(-20.79 50.2) rotate(-45)"/><rect class="cls-1" x="75.42" y="112.01" width="5.71" height="11.96"/><rect class="cls-1" x="112.01" y="74.39" width="11.96" height="5.71"/><rect class="cls-1" x="75.42" y="32.59" width="5.71" height="11.96"/><path class="cls-2" d="M78.28,0a78.28,78.28,0,1,0,78.28,78.28A78.28,78.28,0,0,0,78.28,0Zm27.26,78.28A27.26,27.26,0,1,1,78.28,51,27.26,27.26,0,0,1,105.54,78.28Zm-5.43-25.87L108.57,44l4,4-8.46,8.46Zm12.5,56.15-4,4-8.46-8.46,4-4Zm-56.15-4.42L48,112.6l-4-4,8.46-8.46ZM44,48l4-4,8.46,8.46-4,4Zm37.18-3.44H75.42v-12h5.71ZM32.59,74.39h12V80.1h-12ZM75.42,112h5.71v12H75.42ZM124,80.1H112V74.39h12Z"/></g></g></svg>