<svg xmlns="http://www.w3.org/2000/svg" viewBox="0 0 156.56 156.56"><defs><style>.cls-1{fill:#000060;}.cls-2{fill:#bbe0e6;}</style></defs><title>fully-guided-full</title><g id="Layer_2" data-name="Layer 2"><g id="Holiday_types_full_colour"><path class="cls-1" d="M90.56,44.78l-18.36,0a9.42,9.42,0,0,0-7.09,3.91l-10.72,14L40.63,56.19A3.77,3.77,0,0,0,37.43,63l16.51,7.73a3.76,3.76,0,0,0,4.58-1.12l10.58-13.8v67.46a4.84,4.84,0,0,0,9.68,0V86.1h4.32v37.18a4.84,4.84,0,0,0,9.68,0l0-66.07,3.46,0V82.95a3.69,3.69,0,1,0,7.36,0V56.58C103.63,48.58,98.57,44.78,90.56,44.78Z"/><circle class="cls-1" cx="80.95" cy="34.34" r="8.19"/><path class="cls-2" d="M78.28,0a78.28,78.28,0,1,0,78.28,78.28A78.28,78.28,0,0,0,78.28,0Zm25.35,82.95a3.69,3.69,0,1,1-7.36,0V57.19l-3.46,0,0,66.07a4.84,4.84,0,0,1-9.68,0V86.1H78.79v37.18a4.84,4.84,0,0,1-9.68,0V55.82L58.53,69.62a3.76,3.76,0,0,1-4.58,1.12L37.43,63a3.77,3.77,0,0,1,3.19-6.82l13.77,6.44,10.72-14a9.42,9.42,0,0,1,7.09-3.91l18.36,0c8,0,13.07,3.8,13.07,11.81ZM80.95,26.14a8.19,8.19,0,1,1-8.19,8.19A8.19,8.19,0,0,1,80.95,26.14Z"/></g></g></svg>