<svg xmlns="http://www.w3.org/2000/svg" viewBox="0 0 156.56 156.56"><defs><style>.cls-1{fill:#000060;}.cls-2{fill:#bbe0e6;}</style></defs><title>luxury-full</title><g id="Layer_2" data-name="Layer 2"><g id="Holiday_types_full_colour"><circle class="cls-1" cx="28.16" cy="57.64" r="4.94"/><circle class="cls-1" cx="78.28" cy="45.02" r="4.94"/><circle class="cls-1" cx="128.4" cy="57.64" r="4.94"/><path class="cls-1" d="M42.37,98.72h71.82l9-30.62L97.53,77.88a1.15,1.15,0,0,1-1.26-.3l-18-19.74-18,19.74a1.15,1.15,0,0,1-1.25.3L33.38,68.1Z"/><rect class="cls-1" x="42.66" y="106.46" width="71.24" height="5.58"/><path class="cls-2" d="M78.28,0a78.28,78.28,0,1,0,78.28,78.28A78.28,78.28,0,0,0,78.28,0ZM28.16,52.7a4.94,4.94,0,1,1-4.94,4.94A4.94,4.94,0,0,1,28.16,52.7ZM83.22,45a4.94,4.94,0,1,1-4.94-4.94A4.94,4.94,0,0,1,83.22,45ZM60.28,77.58l18-19.74,18,19.74a1.15,1.15,0,0,0,1.26.3l25.65-9.79-9,30.62H42.37l-9-30.62L59,77.88A1.15,1.15,0,0,0,60.28,77.58ZM42.66,106.46H113.9V112H42.66Zm80.8-48.82a4.94,4.94,0,1,1,4.94,4.94A4.94,4.94,0,0,1,123.46,57.64Z"/></g></g></svg>