<svg xmlns="http://www.w3.org/2000/svg" viewBox="0 0 156.56 156.56"><defs><style>.cls-1{fill:#000060;}.cls-2{fill:#bbe0e6;}</style></defs><title>rail-journey-full</title><g id="Layer_2" data-name="Layer 2"><g id="Holiday_types_full_colour"><path class="cls-1" d="M103.24,38.36H55.34a11.76,11.76,0,0,0-12,12v59.88H56.53l-5.19,8h8l5.19-8H93.66l5.19,8h8l-5.19-8h13.57V50.33A11.76,11.76,0,0,0,103.24,38.36ZM67.31,94.25h-8v-8h8Zm31.94,0h-8v-8h8Zm4-16H55.34v-24h47.91Z"/><rect class="cls-2" x="55.34" y="54.32" width="47.91" height="23.95"/><rect class="cls-2" x="91.27" y="86.26" width="7.98" height="7.98"/><rect class="cls-2" x="59.33" y="86.26" width="7.98" height="7.98"/><path class="cls-2" d="M78.28,0a78.28,78.28,0,1,0,78.28,78.28A78.28,78.28,0,0,0,78.28,0Zm36.94,110.22H101.65l5.19,8h-8l-5.19-8H64.52l-5.19,8h-8l5.19-8H43.36V50.33a11.76,11.76,0,0,1,12-12h47.91a11.76,11.76,0,0,1,12,12Z"/></g></g></svg>