<?xml version="1.0" standalone="no"?>
<!DOCTYPE svg PUBLIC "-//W3C//DTD SVG 20010904//EN"
 "http://www.w3.org/TR/2001/REC-SVG-20010904/DTD/svg10.dtd">
<svg version="1.0" xmlns="http://www.w3.org/2000/svg"
 width="260.000000pt" height="260.000000pt" viewBox="0 0 260.000000 260.000000"
 preserveAspectRatio="xMidYMid meet">
<metadata>
Created by potrace 1.11, written by Peter Selinger 2001-2013
</metadata>
<g transform="translate(0.000000,260.000000) scale(0.100000,-0.100000)"
fill="#000000" stroke="none">
<path d="M1169 2506 c-2 -2 -26 -7 -54 -10 -174 -23 -349 -89 -515 -194 -228
-144 -424 -389 -526 -658 -39 -102 -74 -251 -74 -314 l0 -55 1301 0 1302 0 -7
80 c-12 164 -102 406 -209 565 -249 370 -648 586 -1083 588 -73 1 -133 -1
-135 -2z"/>
<path d="M4 938 c5 -49 22 -123 48 -210 6 -20 18 -38 27 -40 13 -3 2434 -2
2452 1 13 2 69 220 69 271 l0 30 -1301 0 -1301 0 6 -52z"/>
<path d="M210 405 c0 -19 104 -148 182 -226 l79 -79 829 0 828 0 80 80 c74 73
194 221 187 228 -9 9 -2185 6 -2185 -3z"/>
</g>
</svg>
