<svg xmlns="http://www.w3.org/2000/svg" viewBox="0 0 71.67 71.67"><defs><style>.cls-1{fill:#000060;}</style></defs><title>swimming-pool</title><g id="Layer_2" data-name="Layer 2"><g id="Inclusions"><path class="cls-1" d="M52.26,14.93a7.43,7.43,0,0,0,7.47-7.47,7.47,7.47,0,1,0-14.93,0A7.47,7.47,0,0,0,52.26,14.93ZM22.69,30.16c8.9,8.54,18.27,8.54,27.17,0C54,24.31,45.09,12.3,30.1,12.3H18.16c-5.14,0-5.14,8.42,0,8.42H30.94ZM0,53.87V45a34.46,34.46,0,0,0,20.19-6.45c10.45,9.62,21.2,9.26,31.35,0A34.83,34.83,0,0,0,71.67,45v8.84A37.34,37.34,0,0,1,52.14,48c-10.51,7.47-21.68,7.82-32.55,0A36.89,36.89,0,0,1,0,53.87Zm0,17.8V62.83a34.46,34.46,0,0,0,20.19-6.45c10.45,9.62,21.2,9.26,31.35,0a34.83,34.83,0,0,0,20.13,6.45v8.84a37.34,37.34,0,0,1-19.53-5.85c-10.51,7.47-21.68,7.82-32.55,0A36.89,36.89,0,0,1,0,71.67Z"/></g></g></svg>