<svg xmlns="http://www.w3.org/2000/svg" xmlns:xlink="http://www.w3.org/1999/xlink" width="60.031" height="60" viewBox="0 0 60.031 60">
  <defs>
    <style>
      .cls-1 {
        filter: url(#filter);
      }

      .cls-2 {
        font-size: 21.003px;
        font-family: Larsseit;
        font-weight: 700;
      }

      .cls-2, .cls-3 {
        fill: #ff4b1a;
      }

      .cls-3 {
        fill-rule: evenodd;
      }
    </style>
    <filter id="filter" filterUnits="userSpaceOnUse">
      <feFlood result="flood" flood-color="#fff"/>
      <feComposite result="composite" operator="in" in2="SourceGraphic"/>
      <feBlend result="blend" in2="SourceGraphic"/>
    </filter>
  </defs>
  <g id="icon" class="cls-1">
    <text id="_" data-name="$" class="cls-2" transform="translate(17.247 33.85) scale(1.2 1.2)">$</text>
    <path class="cls-3" d="M646.867,415.786a24.9,24.9,0,1,1,24.895-24.9A24.924,24.924,0,0,1,646.867,415.786Zm0-44.445a19.548,19.548,0,1,0,19.547,19.548A19.571,19.571,0,0,0,646.867,371.341Zm32.445,54.666a2.661,2.661,0,0,1-1.891-.783L662.139,409.94a2.673,2.673,0,0,1,3.781-3.78L681.2,421.442A2.674,2.674,0,0,1,679.312,426.007Z" transform="translate(-621.969 -366)"/>
  </g>
</svg>
