<svg xmlns="http://www.w3.org/2000/svg" viewBox="0 0 23.04 29.78"><defs><style>.cls-1{fill:#fff;}</style></defs><title>pinterest</title><g id="Layer_2" data-name="Layer 2"><g id="Layer_1-2" data-name="Layer 1"><path class="cls-1" d="M13.85,21.51a4.91,4.91,0,0,1-4.18-2.12s-1,3.94-1.19,4.7a18.22,18.22,0,0,1-3.07,5.6A.23.23,0,0,1,5,29.6a19.16,19.16,0,0,1,0-6.5L7.2,13.78a6.58,6.58,0,0,1-.55-2.7c0-2.54,1.46-4.43,3.29-4.43A2.29,2.29,0,0,1,12.25,9.2c0,1.56-1,3.9-1.49,6.07a2.64,2.64,0,0,0,2.7,3.28c3.24,0,5.41-4.18,5.4-9.1,0-3.75-2.54-6.55-7.13-6.53a8.09,8.09,0,0,0-8.39,8.21,4.93,4.93,0,0,0,1.14,3.35.84.84,0,0,1,.25,1c-.08.32-.27,1.07-.34,1.37a.59.59,0,0,1-.86.43C1.13,16.27,0,13.65,0,10.72,0,5.86,4.06,0,12.19,0,18.71,0,23,4.69,23,9.76c0,6.7-3.7,11.73-9.19,11.74Z"/></g></g></svg>