<svg xmlns="http://www.w3.org/2000/svg" viewBox="0 0 156.56 156.56"><defs><style>.cls-1{fill:#fff;}</style></defs><title>cruise-white</title><g id="Layer_2" data-name="Layer 2"><g id="Holiday_types_white"><path class="cls-1" d="M95.19,93.77h.55a3.68,3.68,0,0,0,0-7.36h-.55a3.68,3.68,0,0,0,0,7.36Z"/><path class="cls-1" d="M78.62,93.77h.55a3.68,3.68,0,0,0,0-7.36h-.55a3.68,3.68,0,0,0,0,7.36Z"/><path class="cls-1" d="M78.28,0a78.28,78.28,0,1,0,78.28,78.28A78.28,78.28,0,0,0,78.28,0ZM52.84,43.32a3.92,3.92,0,0,1,3.68-2.95h30.2A3.62,3.62,0,0,1,89.85,42l17.68,26.7H47.32Zm51.37,67.2a3.62,3.62,0,0,1-3.13,1.66H47.5a3.77,3.77,0,0,1-3.68-3.31L40.51,76.09h86.72Z"/><path class="cls-1" d="M62,93.77h.55a3.68,3.68,0,0,0,0-7.36H62a3.68,3.68,0,0,0,0,7.36Z"/></g></g></svg>