<svg xmlns="http://www.w3.org/2000/svg" viewBox="0 0 93 71.08"><defs><style>.cls-1{fill:#000060;}</style></defs><title>hairdryer</title><g id="Layer_2" data-name="Layer 2"><g id="Inclusions"><path class="cls-1" d="M69.08,9.11C68.85,8.8,42,0,42,0H21.62a21.59,21.59,0,0,0-.8,43.16L18.05,69.44a1.6,1.6,0,0,0,1.53,1.65h12a1.59,1.59,0,0,0,1.53-1.65l2.67-16.31h1.55l1-4.2H36.5l.93-5.68H42s27-8.76,27.13-9S69.2,9.26,69.08,9.11ZM29.69,25.43H13.32V21.71H29.69Zm0-8.61H13.32V13.1H29.69Z"/><path class="cls-1" d="M75.84,14.34v4.29c7.17,4.29,10-4.29,17.16,0V14.34C85.84,10.05,83,18.63,75.84,14.34Z"/><path class="cls-1" d="M75.84,23.83v4.29c7.17,4.29,10-4.29,17.16,0V23.83C85.84,19.53,83,28.12,75.84,23.83Z"/></g></g></svg>