<?xml version="1.0" encoding="utf-8"?>
<!-- Generator: Adobe Illustrator 20.1.0, SVG Export Plug-In . SVG Version: 6.00 Build 0)  -->
<svg version="1.1" id="Layer_1" xmlns="http://www.w3.org/2000/svg" xmlns:xlink="http://www.w3.org/1999/xlink" x="0px" y="0px"
	 viewBox="0 0 97.7 102.9" style="enable-background:new 0 0 97.7 102.9;" xml:space="preserve">
<style type="text/css">
	.st0{fill:#FFA600;}
</style>
<rect x="45" y="99.1" class="st0" width="7.7" height="3.9"/>
<rect x="39.3" y="85.6" class="st0" width="19.2" height="3.9"/>
<rect x="39.3" y="92.4" class="st0" width="19.2" height="3.9"/>
<path class="st0" d="M75.9,51.9c0-14.9-12.1-27-27-27c-14.9,0-27,12.1-27,27c0,10.8,8.3,20,17.4,24.4v6.5h19.2v-6.5
	C67.5,71.9,75.9,62.7,75.9,51.9"/>
<rect x="46.9" class="st0" width="3.9" height="13.6"/>
<rect x="17.7" y="12" transform="matrix(0.7071 -0.7071 0.7071 0.7071 -7.5078 19.3571)" class="st0" width="3.9" height="13.6"/>
<rect x="72.7" y="15.3" transform="matrix(0.7071 -0.7071 0.7071 0.7071 11.1058 61.238)" class="st0" width="13.6" height="3.9"/>
<rect x="84.1" y="45.9" class="st0" width="13.6" height="3.9"/>
<rect x="0" y="45.9" class="st0" width="13.6" height="3.9"/>
</svg>
