<svg xmlns="http://www.w3.org/2000/svg" viewBox="0 0 70.3 72.57"><defs><style>.cls-1{fill:#000060;}</style></defs><title>bus-tour</title><g id="Layer_2" data-name="Layer 2"><g id="Holiday_types"><path class="cls-1" d="M55.89,68.19c0,5.83,10.73,5.83,10.73,0V62.94H55.89Zm-52.1,0c0,5.83,10.74,5.83,10.74,0V62.94H3.79ZM48.17,0H22.12C9.91,0,0,6.39,0,16.29V60.14H70.3V16.29C70.3,6.39,60.39,0,48.17,0ZM23.06,5.15H47.25a2.69,2.69,0,0,1,0,5.38H23.06a2.69,2.69,0,0,1,0-5.38ZM9.15,52.28a4.92,4.92,0,1,1,4.92-4.92A4.92,4.92,0,0,1,9.15,52.28Zm22-18.35H5.59V25.7c0-6.29,2.38-9.57,10-9.57H31.12Zm8.06-17.8h15.5c7.66,0,10,3.29,10,9.57v8.23H39.18ZM61.31,52.28a4.92,4.92,0,1,1,4.92-4.92A4.92,4.92,0,0,1,61.31,52.28Z"/></g></g></svg>