<svg xmlns="http://www.w3.org/2000/svg" viewBox="0 0 86.72 71.81"><defs><style>.cls-1{fill:#000060;}</style></defs><title>cruise</title><g id="Layer_2" data-name="Layer 2"><g id="Holiday_types"><path class="cls-1" d="M49.34,1.66A3.62,3.62,0,0,0,46.21,0H16a3.93,3.93,0,0,0-3.68,2.95L6.81,28.35H67Z"/><path class="cls-1" d="M0,35.72,3.31,68.49A3.77,3.77,0,0,0,7,71.81H60.58a3.62,3.62,0,0,0,3.13-1.66l23-34.43ZM22.09,53.4h-.55a3.68,3.68,0,1,1,0-7.36h.55a3.68,3.68,0,0,1,0,7.36Zm16.57,0h-.55a3.68,3.68,0,0,1,0-7.36h.55a3.68,3.68,0,1,1,0,7.36Zm16.57,0h-.55a3.68,3.68,0,0,1,0-7.36h.55a3.68,3.68,0,0,1,0,7.36Z"/></g></g></svg>