<svg xmlns="http://www.w3.org/2000/svg" viewBox="0 0 1723.1 254"><style>.st0{fill:#FF4B1A;}</style><g id="Layer_1"><path class="st0" d="M192.8 13.3v184.2h-29.4V69.6l-5.3 15-49.7 112.9H83.9L34.5 84.6l-5-15v127.9H0V13.3h33.1l58.5 127.6 4.4 11.3 5-11.3 58.4-127.6zM342.8 64.4L272.3 254h-29.2l21.3-58.4-48.7-131.2h30l30.8 89.1 2.7 10.8 2.6-10.8 31-89.1zM1161.4 64.4l-49.5 133.1h-28.1l-49.5-133.1h30l30.8 89.1 2.6 10.8 2.7-10.8 31-89.1zM1200.1 118.8h68.7c-.3-20-13.4-32.9-33.1-32.9-20.1 0-33.8 13.7-35.6 32.9m96.8 11.1v10.8h-97.1c1.3 21.3 16 35 36.8 35 16.3 0 26.8-6.3 31.8-18.9h27.4c-8.4 27.6-29.2 43.7-60 43.7-19.2 0-35-6.3-47.1-18.9-11.8-12.6-17.9-29.5-17.9-50.3 0-20.2 6.1-37.1 17.9-50 11.8-13.2 27.6-19.7 47.1-19.7 36.6-.1 61.1 24.1 61.1 68.3M1394.5 91.2c-10.8 0-19.7 2.9-26.6 8.9-7.6 6.3-11.3 15.8-11.6 28.1v69.2h-27.9v-133h24.5l2.4 22.6c5-13.7 18.1-23.9 39.2-23.9v28.1zM1448.7 197.5h-27.9V64.4h27.9v133.1zm1.6-160.8c-12.7 13-38.8 3.5-37.2-15 0-12.4 9.9-21.7 21.6-21.7 19.1-1.2 29.6 24.9 15.6 36.7M1506.6 118.8h68.7c-.3-20-13.4-32.9-33.2-32.9-20 0-33.7 13.7-35.5 32.9m96.8 11.1v10.8h-97.1c1.3 21.3 16 35 36.8 35 16.3 0 26.8-6.3 31.8-18.9h27.4c-8.4 27.6-29.2 43.7-60 43.7-19.2 0-35-6.3-47.1-18.9-11.8-12.6-17.9-29.5-17.9-50.3 0-20.2 6.1-37.1 17.9-50 11.8-13.2 27.6-19.7 47.1-19.7 36.6-.1 61.1 24.1 61.1 68.3M1706.3 73c8.7 7.6 13.2 17.9 13.4 30.5h-27.9c-.3-12.1-6.6-18.1-18.7-18.1-11.3 0-17.6 6.3-17.6 15.5 0 9.5 5.3 13.4 24.2 17.6 31.6 6.3 43.4 17.9 43.4 40 0 26.6-20.2 41.8-48.7 41.8-31.3 0-49.5-16.6-50.3-43.1h28.2c.3 12.4 8.7 19.5 22.6 19.5 12.9 0 20-6 20-15.5 0-10.3-5.8-15-26-19.2-28.7-6-41.6-17.4-41.6-38.7 0-11.6 3.9-21.3 12.1-29.5s19.7-12.4 34.2-12.4c13.5.1 24.3 4 32.7 11.6M396.2 40.9v128.9h37.9c40 0 63.9-23.7 63.9-64.5s-23.7-64.5-63.9-64.5h-37.9zm37.9-27.6c28.7 0 51.3 8.4 68.4 25.5 17.1 16.8 25.8 38.9 25.8 66.6 0 27.6-8.7 50-25.8 66.8-17.1 16.8-39.7 25.3-68.4 25.3h-67.3V13.3h67.3zM587 197.5h-27.9V64.4H587v133.1zm1.6-160.8c-12.7 13-38.8 3.5-37.2-15C551.3 9.3 561.2 0 573 0c19.1-1.2 29.6 24.9 15.6 36.7M698.3 73c8.7 7.6 13.2 17.9 13.4 30.5h-27.9c-.3-12.1-6.6-18.1-18.7-18.1-11.3 0-17.6 6.3-17.6 15.5 0 9.5 5.3 13.4 24.2 17.6 31.6 6.3 43.4 17.9 43.4 40 0 26.6-20.3 41.8-48.7 41.8-31.3 0-49.5-16.6-50.2-43.1h28.2c.3 12.4 8.7 19.5 22.6 19.5 12.9 0 20-6 20-15.5 0-10.3-5.8-15-26-19.2-28.7-6-41.6-17.4-41.6-38.7 0-11.6 3.9-21.3 12.1-29.5s19.7-12.4 34.2-12.4c13.3.1 24.1 4 32.6 11.6M859.8 108.6h-27.4c-4.5-13.7-16.6-21.3-32.4-21.3-10.8 0-19.5 4.2-26.6 12.4-7.1 8.2-10.5 18.7-10.5 31.6 0 12.4 3.4 22.9 10.5 31.1 7.1 8.2 16.3 12.3 27.1 12.3 15.5 0 27.9-8.4 31.8-21h27.6c-6.6 30.2-30 46.8-60.5 46.8-18.9 0-34.7-6.3-47.1-19.2-12.4-12.9-18.4-29.7-18.4-50 0-20.2 6.1-36.8 18.4-50 12.4-13.2 27.9-19.7 47.1-19.7 31.5-.1 54.9 16.7 60.4 47"/></g><g id="Layer_2"><path class="st0" d="M892.3 180.9c4.3 6.7 9.6 12.7 15.7 17.7h93.2c6.1-5 11.4-11 15.7-17.7H892.3zM1029 131.9c-3.3-39.3-35.3-70.1-74.3-70.1s-71 30.8-74.3 70.1H1029zM1024.6 165.4c2-5.4 3.3-11.2 4.1-17.1H880.6c.7 5.9 2.1 11.7 4.1 17.1h139.9z"/></g></svg>