<svg xmlns="http://www.w3.org/2000/svg" viewBox="0 0 72.23 72.23"><defs><style>.cls-1{fill:#000060;}</style></defs><title>google+</title><g id="Layer_2" data-name="Layer 2"><g id="sharing"><path class="cls-1" d="M36.12,0A36.12,36.12,0,1,0,72.23,36.12,36.12,36.12,0,0,0,36.12,0ZM28.44,51.43A15.18,15.18,0,1,1,38.58,25c-3.17,3-3.06,3.19-4.31,4.44a8.6,8.6,0,0,0-5.9-2.2,9,9,0,0,0,.05,18c4.93,0,6.92-2.14,8.19-6l-8.21,0,0-6h0L43,33.2C44,40.47,41,51.39,28.44,51.43Zm27.34-8.8H52l0-5.41H46.58V33.49H52V28.22h3.76v5.26H61v3.75H55.76Z"/></g></g></svg>