<svg xmlns="http://www.w3.org/2000/svg" viewBox="0 0 72.23 72.23"><defs><style>.cls-1{fill:#000060;}</style></defs><title>stumbleupon</title><g id="Layer_2" data-name="Layer 2"><g id="sharing"><path class="cls-1" d="M36.12,0A36.12,36.12,0,1,0,72.23,36.12,36.12,36.12,0,0,0,36.12,0Zm0,24a2.39,2.39,0,0,0-2.39,2.39V40.76a10.1,10.1,0,0,1-20.19-.15V34.35h7.73v6.18a2.39,2.39,0,1,0,4.78,0V25.94A10.09,10.09,0,0,1,46.2,26v3.19l-4.6,1.37-3.09-1.44V26.35A2.39,2.39,0,0,0,36.12,24ZM58.71,40.61a10.1,10.1,0,0,1-20.2.09v-6.3l3.09,1.44,4.6-1.37v6.35a2.39,2.39,0,1,0,4.78,0V34.35h7.73Z"/></g></g></svg>