<svg xmlns="http://www.w3.org/2000/svg" viewBox="0 0 72.23 72.23"><defs><style>.cls-1{fill:#000060;}</style></defs><title>twitter</title><g id="Layer_2" data-name="Layer 2"><g id="sharing"><path class="cls-1" d="M36.12,0A36.12,36.12,0,1,0,72.23,36.12,36.12,36.12,0,0,0,36.12,0ZM52.94,27.49c0,.37,0,.74,0,1.12,0,11.47-8.73,24.7-24.7,24.7A24.57,24.57,0,0,1,15,49.41a17,17,0,0,0,2.07.12,17.38,17.38,0,0,0,10.78-3.71,8.67,8.67,0,0,1-8.1-6,8.77,8.77,0,0,0,3.91-.15,8.69,8.69,0,0,1-7-8.51V31A8.64,8.64,0,0,0,20.6,32.1a8.68,8.68,0,0,1-2.69-11.59A24.62,24.62,0,0,0,35.8,29.58a8.69,8.69,0,0,1,14.79-7.92,17.4,17.4,0,0,0,5.51-2.1h0a8.71,8.71,0,0,1-3.81,4.8,17.18,17.18,0,0,0,5-1.36A17.68,17.68,0,0,1,52.94,27.49Z"/></g></g></svg>