<svg xmlns="http://www.w3.org/2000/svg" viewBox="0 0 156.56 156.56"><defs><style>.cls-1{fill:#fff;}</style></defs><title>stay-and-relax-white</title><g id="Layer_2" data-name="Layer 2"><g id="Holiday_types_white"><polygon class="cls-1" points="82.89 64.23 77.43 69.69 88.34 69.69 82.89 64.23"/><path class="cls-1" d="M78.28,0a78.28,78.28,0,1,0,78.28,78.28A78.28,78.28,0,0,0,78.28,0ZM56.08,57.95h0L63.7,69.69h.7L82.89,51.2l18.49,18.49h11.12v0a4.58,4.58,0,0,1,0,9.14v0H58.71L48.37,63h0a4.6,4.6,0,1,1,7.69-5ZM44.48,42a6.92,6.92,0,1,1-6.92,6.92A6.92,6.92,0,0,1,44.48,42Zm81.84,50.72h-5l4.28,15.33-8.88,2.48-5-17.81H55.49l-5,17.81-8.88-2.48L47,88.87,30.23,62.66l7.77-5,16.5,25.82h71.81Z"/></g></g></svg>