<svg xmlns="http://www.w3.org/2000/svg" viewBox="0 0 156.56 156.56"><defs><style>.cls-1{fill:#000060;}.cls-2{fill:#bbe0e6;}</style></defs><title>stay-and-relax-full</title><g id="Layer_2" data-name="Layer 2"><g id="Holiday_types_full_colour"><path class="cls-1" d="M63.7,69.69,56.09,57.94h0a4.6,4.6,0,1,0-7.69,5h0L58.71,78.91h53.78v0a4.58,4.58,0,0,0,0-9.14v0H101.38L82.89,51.2,64.4,69.69Zm19.19-5.45,5.45,5.45H77.43Z"/><circle class="cls-1" cx="44.48" cy="48.93" r="6.92"/><polygon class="cls-1" points="121.3 92.74 126.32 92.74 126.32 83.52 54.51 83.52 38 57.7 30.23 62.66 46.99 88.87 41.63 108.07 50.52 110.54 55.48 92.74 111.73 92.74 116.69 110.54 125.58 108.07 121.3 92.74"/><polygon class="cls-2" points="82.89 64.23 77.43 69.69 88.34 69.69 82.89 64.23"/><path class="cls-2" d="M78.28,0a78.28,78.28,0,1,0,78.28,78.28A78.28,78.28,0,0,0,78.28,0Zm33.45,92.74H55.49l-5,17.81-8.88-2.48L47,88.87,30.23,62.66l7.77-5,16.5,25.82h71.81v9.22h-5l4.28,15.33-8.88,2.48ZM101.38,69.69h11.12v0a4.58,4.58,0,0,1,0,9.14v0H58.71L48.37,63h0a4.6,4.6,0,1,1,7.69-5h0L63.7,69.69h.7L82.89,51.2ZM44.48,42a6.92,6.92,0,1,1-6.92,6.92A6.92,6.92,0,0,1,44.48,42Z"/></g></g></svg>